<!DOCTYPE svg PUBLIC "-//W3C//DTD SVG 1.1//EN" "http://www.w3.org/Graphics/SVG/1.1/DTD/svg11.dtd">
<!-- Uploaded to: SVG Repo, www.svgrepo.com, Transformed by: SVG Repo Mixer Tools -->
<svg width="800px" height="800px" viewBox="-4.32 -4.32 32.64 32.64" id="Layer_1" data-name="Layer 1" xmlns="http://www.w3.org/2000/svg" fill="#ffffff" stroke="#ffffff">
<g id="SVGRepo_bgCarrier" stroke-width="0">
<rect x="-4.32" y="-4.32" width="32.64" height="32.64" rx="3.264" fill="#0d6efd" strokewidth="0"/>
</g>
<g id="SVGRepo_tracerCarrier" stroke-linecap="round" stroke-linejoin="round"/>
<g id="SVGRepo_iconCarrier">
<defs>
<style>.cls-1{fill:none;stroke:#ffffff;stroke-miterlimit:10;stroke-width:2px;}</style>
</defs>
<line class="cls-1" x1="4" y1="15.5" x2="4" y2="8.5"/>
<line class="cls-1" x1="20" y1="8.5" x2="20" y2="15.5"/>
<polyline class="cls-1" points="23 10.5 12 1.5 1 10.5"/>
<line class="cls-1" x1="7" y1="14.5" x2="9" y2="14.5"/>
<line class="cls-1" x1="11" y1="14.5" x2="13" y2="14.5"/>
<line class="cls-1" x1="15" y1="14.5" x2="17" y2="14.5"/>
<line class="cls-1" x1="7" y1="22.5" x2="9" y2="22.5"/>
<line class="cls-1" x1="3" y1="22.5" x2="5" y2="22.5"/>
<line class="cls-1" x1="11" y1="22.5" x2="13" y2="22.5"/>
<line class="cls-1" x1="15" y1="22.5" x2="17" y2="22.5"/>
<line class="cls-1" x1="19" y1="22.5" x2="21" y2="22.5"/>
<line class="cls-1" x1="3" y1="18.5" x2="5" y2="18.5"/>
<line class="cls-1" x1="19" y1="18.5" x2="21" y2="18.5"/>
</g>
</svg>