<!DOCTYPE svg PUBLIC "-//W3C//DTD SVG 1.1//EN" "http://www.w3.org/Graphics/SVG/1.1/DTD/svg11.dtd">
<!-- Uploaded to: SVG Repo, www.svgrepo.com, Transformed by: SVG Repo Mixer Tools -->
<svg width="800px" height="800px" viewBox="-5.28 -5.28 58.56 58.56" id="Layer_1" version="1.1" xml:space="preserve" xmlns="http://www.w3.org/2000/svg" xmlns:xlink="http://www.w3.org/1999/xlink" fill="#ffffff" stroke="#ffffff" stroke-width="0.9600000000000002">
<g id="SVGRepo_bgCarrier" stroke-width="0">
<rect x="-5.28" y="-5.28" width="58.56" height="58.56" rx="5.856" fill="#0d6efd" strokewidth="0"/>
</g>
<g id="SVGRepo_tracerCarrier" stroke-linecap="round" stroke-linejoin="round"/>
<g id="SVGRepo_iconCarrier">
<style type="text/css"> .st0{fill:#ffffff;} </style>
<path class="st0" d="M41.089,25.947h-1.737c-0.24-3.863-3.219-6.991-7.017-7.457c1.88-1.135,3.144-3.192,3.144-5.543 c0-3.571-2.905-6.477-6.477-6.477s-6.478,2.906-6.478,6.477c0,2.352,1.264,4.408,3.145,5.543c-3.799,0.466-6.777,3.594-7.017,7.457 h-2.898c-0.007-0.096-0.032-0.192-0.091-0.269c-0.168-0.219-0.256-0.48-0.256-0.758s0.088-0.54,0.255-0.758 c0.06-0.077,0.084-0.173,0.092-0.269H18.1c0.276,0,0.5-0.224,0.5-0.5v-0.464c0-0.11-0.036-0.217-0.103-0.304 c-0.168-0.219-0.256-0.481-0.256-0.758c0-0.278,0.088-0.54,0.255-0.758c0.067-0.087,0.104-0.194,0.104-0.304V20.34 c0-0.276-0.224-0.5-0.5-0.5h-2.168c-0.007-0.096-0.032-0.191-0.091-0.268c-0.168-0.219-0.256-0.481-0.256-0.758 s0.088-0.54,0.256-0.758c0.066-0.087,0.103-0.194,0.103-0.304v-0.464c0-0.276-0.224-0.5-0.5-0.5H8.615 c-0.543,0-1.053,0.21-1.434,0.592c-0.382,0.382-0.593,0.891-0.593,1.435c0,1.117,0.909,2.026,2.026,2.026H9.53 c-0.182,0.308-0.286,0.658-0.286,1.027c0,0.376,0.11,0.724,0.289,1.026H8.438c-0.542,0-1.052,0.21-1.434,0.592 s-0.593,0.891-0.593,1.435c0,0.427,0.134,0.822,0.36,1.149c-0.109,0.092-0.182,0.224-0.182,0.378v5.166c0,0.276,0.224,0.5,0.5,0.5 h2.833v8.917c0,0.276,0.224,0.5,0.5,0.5h27.334c0.276,0,0.5-0.224,0.5-0.5v-8.917h2.833c0.276,0,0.5-0.224,0.5-0.5v-5.166 C41.589,26.171,41.365,25.947,41.089,25.947z M23.524,12.947c0-3.02,2.457-5.477,5.478-5.477c3.02,0,5.477,2.457,5.477,5.477 s-2.457,5.477-5.477,5.477C25.981,18.424,23.524,15.967,23.524,12.947z M26.649,19.424h4.704c3.705,0,6.749,2.883,7.006,6.523 H19.645C19.901,22.307,22.945,19.424,26.649,19.424z M7.589,18.814c0-0.276,0.106-0.534,0.3-0.728 c0.192-0.193,0.451-0.299,0.727-0.299h6.216c-0.162,0.315-0.246,0.664-0.246,1.026s0.084,0.711,0.246,1.026h-3.56H8.615 C8.049,19.84,7.589,19.38,7.589,18.814z M10.244,21.867c0-0.276,0.106-0.534,0.3-0.727s0.452-0.3,0.728-0.3h4.172h2.044 c-0.162,0.315-0.246,0.664-0.246,1.027c0,0.363,0.084,0.711,0.246,1.026h-2.221h-3.995C10.705,22.894,10.244,22.433,10.244,21.867z M7.711,24.193c0.193-0.193,0.451-0.3,0.727-0.3h2.834h3.383c-0.162,0.315-0.246,0.664-0.246,1.027c0,0.363,0.084,0.711,0.246,1.027 H8.438c-0.566,0-1.026-0.461-1.026-1.027C7.411,24.645,7.518,24.387,7.711,24.193z M37.256,40.53H10.922v-8.417h26.334V40.53z M40.589,31.113h-2.833H10.422H7.589v-4.166h0.849h6.829h3.86h19.75h1.712V31.113z"/>
</g>
</svg>